HIERARCHY
ROOT Hips
{
	OFFSET -40.819462 106.995209 20.358196
	CHANNELS 6 Xposition Yposition Zposition Xrotation Yrotation Zrotation
	JOINT Chest
	{
		OFFSET -2.243515 13.458115 -0.003242
		CHANNELS 3 Xrotation Yrotation Zrotation
		JOINT Chest2
		{
			OFFSET -6.517166 20.410065 0.150246
			CHANNELS 3 Xrotation Yrotation Zrotation
			JOINT Chest3
			{
				OFFSET -3.583691 14.191833 2.927271
				CHANNELS 3 Xrotation Yrotation Zrotation
				JOINT Neck
				{
					OFFSET -4.085640 16.745712 1.226639
					CHANNELS 3 Xrotation Yrotation Zrotation
					JOINT Head
					{
						OFFSET -2.880466 10.071899 0.295557
						CHANNELS 3 Xrotation Yrotation Zrotation
						End Site
						{
							OFFSET -2.869637 10.072617 0.367834
						}
					}
				}
				JOINT LeftCollar
				{
					OFFSET -7.690155 11.889236 -1.145456
					CHANNELS 3 Xrotation Yrotation Zrotation
					JOINT LeftUpArm
					{
						OFFSET -13.391678 -4.302063 10.519245
						CHANNELS 3 Xrotation Yrotation Zrotation
						JOINT LeftLowArm
						{
							OFFSET -26.001617 -21.071915 4.429276
							CHANNELS 3 Xrotation Yrotation Zrotation
							JOINT LeftHand
							{
								OFFSET -4.705414 -25.773659 -14.646666
								CHANNELS 3 Xrotation Yrotation Zrotation
								End Site
								{
									OFFSET -1.028419 -5.632988 -3.201101
								}
							}
						}
					}
				}
				JOINT RightCollar
				{
					OFFSET 0.331882 13.955658 -2.634054
					CHANNELS 3 Xrotation Yrotation Zrotation
					JOINT RightUpArm
					{
						OFFSET 15.417191 5.205490 6.611309
						CHANNELS 3 Xrotation Yrotation Zrotation
						JOINT RightLowArm
						{
							OFFSET 18.147232 27.977997 -5.257715
							CHANNELS 3 Xrotation Yrotation Zrotation
							JOINT RightHand
							{
								OFFSET -4.542414 29.332977 4.460661
								CHANNELS 3 Xrotation Yrotation Zrotation
								End Site
								{
									OFFSET -0.992796 6.411011 0.974928
								}
							}
						}
					}
				}
			}
		}
	}
	JOINT LeftUpLeg
	{
		OFFSET -9.743263 -1.624039 1.688341
		CHANNELS 3 Xrotation Yrotation Zrotation
		JOINT LeftLowLeg
		{
			OFFSET -34.200611 -29.926102 -13.369203
			CHANNELS 3 Xrotation Yrotation Zrotation
			JOINT LeftFoot
			{
				OFFSET 3.151955 -41.884483 15.372817
				CHANNELS 3 Xrotation Yrotation Zrotation
				JOINT LeftToe
				{
					OFFSET -9.816208 -20.348473 -7.010090
					CHANNELS 3 Xrotation Yrotation Zrotation
					End Site
					{
						OFFSET -14.253731 -8.582763 -16.814461
					}
				}
			}
		}
	}
	JOINT RightUpLeg
	{
		OFFSET 9.743299 1.623840 -1.688341
		CHANNELS 3 Xrotation Yrotation Zrotation
		JOINT RightLowLeg
		{
			OFFSET -1.654898 -46.675854 -7.914420
			CHANNELS 3 Xrotation Yrotation Zrotation
			JOINT RightFoot
			{
				OFFSET -10.632774 -41.850971 11.662763
				CHANNELS 3 Xrotation Yrotation Zrotation
				JOINT RightToe
				{
					OFFSET 5.412201 -15.614431 -16.924961
					CHANNELS 3 Xrotation Yrotation Zrotation
					End Site
					{
						OFFSET 10.257624 -1.063538 -21.288639
					}
				}
			}
		}
	}
}
MOTION
Frames: 15
Frame Time: 0.033333
-0.161343 106.130463 -1.111719 1.691024 170.300467 -9.462116 5.442042 -1.578643 -9.246764 -6.451757 -0.567006 2.711651 7.053899 2.404346 0.359585 -6.865981 0.074470 -0.668702 -0.000000 -0.000001 -0.000001 -4.870407 1.827336 2.609446 3.546786 0.403238 -26.932430 -13.855233 37.651298 -32.744456 0.000002 -0.000002 -0.000002 -8.822076 0.756484 -9.618624 4.774689 0.240830 -32.276342 -18.074894 4.250495 -41.072304 -0.000000 0.000000 0.000000 -17.435537 -11.646476 48.035815 26.745733 -16.606154 -44.215670 15.539541 -22.538777 8.529630 0.000003 0.000002 -0.000001 -8.363723 -1.581130 18.395108 17.056461 -1.421594 10.715512 3.028527 35.567548 -9.050776 0.000000 -0.000002 0.000001 
-106.749451 111.955505 -1.108412 5.156454 175.940564 -8.710523 -1.393654 -0.461604 -11.116031 -2.993378 0.184139 2.142037 0.141229 3.732756 5.413321 0.458101 -2.876532 -3.364927 -0.000001 -0.000001 0.000001 2.264171 -4.243669 23.741347 11.439737 -9.507542 31.312319 -8.785352 10.616870 -34.656677 0.000002 -0.000000 -0.000000 -9.527254 8.689220 -33.676644 -12.219717 12.649961 -82.325076 -44.506728 16.967353 -38.360859 0.000001 0.000001 -0.000001 -15.118270 -9.636519 49.321814 21.737234 -12.606320 -42.420666 21.289514 -21.534979 13.569169 0.000003 0.000007 -0.000002 -8.666288 -2.810587 12.342705 10.760380 -3.902869 11.665195 -0.115991 24.141824 -9.616015 0.000001 -0.000001 -0.000000 
-106.754379 111.964500 -1.107201 5.266784 176.273276 -8.764093 -1.323090 -0.455866 -11.072174 -3.095858 0.146821 2.186055 0.150789 3.555489 5.404099 0.216800 -2.911986 -3.285094 0.000000 0.000000 0.000001 2.315552 -3.947483 24.045549 11.355966 -9.562184 31.016111 -8.236574 10.054622 -34.807402 0.000001 -0.000002 0.000002 -9.588118 8.893156 -33.901975 -12.231039 12.898596 -82.011666 -44.823745 16.927345 -37.973646 -0.000001 0.000000 -0.000001 -14.974164 -9.611359 49.292864 21.542726 -12.449578 -42.324831 21.675721 -21.687900 13.635496 0.000003 0.000005 -0.000002 -8.313040 -2.759062 12.335457 10.276810 -3.841270 11.673727 -0.296479 23.988890 -9.512805 0.000000 -0.000002 -0.000000 
-106.765488 111.973511 -1.108080 5.043947 176.521417 -8.890815 -1.554746 -0.502597 -11.016877 -3.377061 0.156886 2.502832 0.524324 3.303209 5.130253 -0.136792 -2.986609 -3.180127 -0.000000 0.000000 0.000001 2.234597 -3.458370 24.055098 11.320718 -9.710734 30.916640 -8.165399 9.554757 -34.652063 -0.000002 0.000002 0.000001 -9.898175 9.487453 -33.592134 -12.303279 12.779662 -81.980869 -45.373343 16.953752 -37.799285 -0.000001 0.000003 -0.000002 -14.933338 -9.590460 49.386379 21.312970 -12.189994 -42.339018 21.825712 -21.849147 13.908134 0.000003 0.000003 -0.000002 -8.280942 -2.789191 12.423043 9.725838 -3.808049 11.707597 0.220664 24.019168 -9.545635 0.000000 -0.000001 0.000001 
-106.772705 111.977333 -1.108534 5.233945 176.654811 -8.901489 -1.346842 -0.463724 -10.959483 -3.078318 0.179481 2.260632 0.148317 3.416750 5.304021 -0.229818 -3.077538 -3.206666 -0.000000 0.000001 0.000001 2.228555 -4.009984 23.976631 11.193520 -9.497184 31.013826 -8.111295 9.428456 -34.672448 0.000000 0.000003 0.000003 -9.929410 9.417776 -33.351834 -12.287915 13.062801 -82.024848 -45.635636 17.004231 -37.721581 -0.000000 0.000002 -0.000001 -14.550019 -9.487975 49.341799 21.050064 -12.044369 -42.322434 21.715222 -21.855342 14.035840 0.000002 0.000003 -0.000000 -8.035513 -2.752920 12.414548 9.791158 -3.830261 11.607578 0.095078 23.838707 -9.362865 -0.000000 0.000001 0.000001 
-106.776367 111.977066 -1.103168 5.289789 177.054541 -8.897383 -1.397026 -0.474560 -10.969115 -3.603764 -0.017375 2.386976 0.681748 3.394275 5.161952 -0.083463 -2.999976 -3.111458 -0.000001 -0.000001 0.000003 2.234111 -4.202333 24.013777 11.320690 -9.721471 30.860092 -8.156269 9.299356 -34.391123 0.000000 -0.000000 0.000001 -9.902004 9.336434 -33.386801 -12.394118 13.182717 -81.730289 -46.495799 17.303893 -37.546260 -0.000001 0.000001 -0.000003 -14.360362 -9.388368 49.309765 20.712158 -11.789487 -42.359935 22.104504 -22.099224 14.222071 0.000003 0.000001 -0.000001 -7.884328 -2.737209 12.335171 9.572632 -3.870131 11.601560 0.083123 23.583277 -9.072866 -0.000001 -0.000001 -0.000000 
-106.777786 111.978981 -1.098270 5.446764 177.045006 -9.001922 -1.185549 -0.430890 -10.954501 -3.848761 -0.088388 2.498188 0.722048 3.952930 5.133922 -0.313683 -3.071474 -3.147968 0.000000 0.000001 -0.000001 2.249711 -4.571236 23.923007 11.309601 -9.747742 30.776494 -8.133136 9.082896 -33.740414 0.000001 -0.000001 -0.000000 -9.591395 8.603414 -33.458317 -12.380868 13.004614 -81.663319 -47.082410 18.035692 -37.980404 0.000001 0.000003 -0.000000 -14.151272 -9.425743 49.350016 20.693749 -11.949395 -42.314262 21.526772 -21.823081 14.175616 0.000002 0.000003 -0.000000 -7.654001 -2.680706 12.461972 9.475640 -3.704572 11.548801 -0.220122 23.538335 -9.085688 -0.000000 0.000001 -0.000000 
-106.786667 111.980652 -1.090509 5.209580 177.293064 -9.090256 -1.519506 -0.507341 -10.898407 -3.612401 0.075215 2.559217 0.873861 3.516607 5.023237 -0.421857 -2.948470 -3.005957 0.000000 0.000001 -0.000001 2.198033 -4.145783 24.032161 11.273840 -9.972382 30.534624 -8.385339 9.038122 -33.221876 0.000002 0.000001 -0.000000 -9.736789 8.785997 -33.398297 -12.444553 13.440534 -81.307733 -46.720003 18.203433 -38.737886 -0.000002 0.000002 0.000000 -14.317318 -9.483285 49.340272 20.644254 -11.907119 -42.315792 21.663010 -21.974824 14.457192 0.000002 0.000005 -0.000002 -7.901565 -2.716776 12.576041 9.531838 -3.686280 11.408683 -0.214515 23.307442 -9.068481 0.000000 0.000001 0.000001 
-106.814636 111.986176 -1.091564 5.708714 177.359208 -9.063382 -1.279980 -0.475853 -10.985344 -3.862746 -0.001145 2.656445 0.933867 3.390286 5.069728 -0.313915 -2.829703 -2.856567 0.000000 0.000001 0.000001 2.114163 -4.363712 23.724315 11.653606 -10.471407 30.466387 -8.024367 8.491364 -32.957743 -0.000000 0.000001 0.000002 -10.078841 9.620044 -32.834464 -12.504369 13.707344 -81.180316 -47.429035 18.772249 -38.536771 -0.000001 0.000002 -0.000000 -14.058553 -9.470889 49.302925 20.897797 -12.073017 -42.454065 21.886129 -22.210426 14.742613 0.000002 0.000003 -0.000002 -7.514893 -2.647935 12.622505 9.404675 -3.837991 11.380272 -0.318072 23.593845 -9.086897 0.000001 -0.000002 0.000001 
-106.854218 111.994591 -1.094265 5.763170 177.470786 -8.892218 -1.313052 -0.489799 -11.159104 -4.206494 -0.057603 2.888713 1.256190 3.574376 4.903402 -0.520924 -2.984784 -2.866229 -0.000001 0.000000 -0.000001 2.065360 -4.427859 23.700012 11.758329 -10.846588 30.139644 -7.905408 7.659471 -32.358363 0.000002 0.000001 -0.000000 -10.156502 9.752870 -32.829550 -12.575895 13.823002 -80.736060 -48.156228 19.200244 -38.771473 -0.000002 0.000005 0.000003 -14.026688 -9.367966 49.075063 20.699126 -11.915978 -42.507491 21.880600 -22.404981 15.121470 0.000003 0.000000 -0.000000 -7.620474 -2.687684 12.484547 9.614478 -4.039196 11.363123 -0.464690 23.927676 -9.204387 -0.000001 0.000001 0.000001 
-106.888123 112.001961 -1.095686 5.419754 177.374193 -9.030125 -1.777288 -0.572102 -10.986726 -4.376865 -0.063761 3.046094 1.467260 3.695850 4.691207 -0.509611 -2.937653 -2.663316 0.000000 -0.000001 0.000001 2.095647 -4.534488 23.758815 11.892609 -11.079871 29.891220 -7.648862 7.168355 -31.981285 -0.000002 0.000001 0.000001 -10.137650 9.909081 -32.804746 -12.537227 14.237960 -80.160992 -48.063266 19.794262 -39.483718 -0.000002 0.000003 0.000002 -14.088593 -9.421828 49.164487 20.568268 -11.793882 -42.551013 21.755799 -22.523992 15.363617 0.000006 0.000003 -0.000002 -7.857356 -2.771642 12.641820 9.514471 -4.172376 11.289661 -0.193563 24.295977 -9.302861 -0.000000 0.000001 0.000002 
-106.939758 112.009987 -1.100416 5.840664 176.974040 -9.085794 -1.283757 -0.505113 -10.925333 -4.495395 -0.069398 3.044173 1.182347 4.181395 4.752353 -0.712482 -2.805420 -2.633576 -0.000001 0.000001 0.000003 1.883915 -5.249554 23.445318 11.812171 -11.628354 29.717094 -6.758298 5.408384 -32.056048 0.000003 0.000001 0.000002 -10.373315 10.003232 -32.524384 -12.912312 14.768665 -79.743893 -49.433914 20.157410 -39.046877 0.000003 -0.000001 0.000000 -13.733340 -9.394976 49.043255 20.650659 -11.799939 -42.312691 21.736684 -22.354861 14.818387 0.000004 0.000003 -0.000002 -7.125812 -2.564470 12.592333 8.945646 -4.086970 11.517962 0.081038 24.636617 -9.490360 -0.000000 0.000001 -0.000000 
-106.991272 112.014877 -1.102606 5.902494 176.763534 -9.195895 -1.173311 -0.509501 -10.812183 -4.749970 -0.101158 3.229601 1.183984 4.827500 4.613262 -1.005419 -2.970148 -2.668820 -0.000001 -0.000001 0.000001 1.733310 -5.918667 23.142670 12.103341 -12.385424 29.467806 -5.702033 3.679712 -31.864919 0.000003 -0.000001 -0.000001 -10.400123 9.743985 -32.179162 -13.119773 15.039298 -79.533988 -50.625745 20.715535 -39.023050 0.000000 -0.000000 -0.000001 -13.590929 -9.357398 49.017645 20.448232 -11.586005 -42.181592 21.921566 -22.226496 14.293252 0.000002 0.000003 -0.000002 -6.962985 -2.547951 12.695456 8.755705 -4.173342 11.552386 0.273543 25.055046 -9.602542 0.000001 0.000001 -0.000000 
-107.034088 112.019211 -1.100216 6.039795 176.915669 -9.177566 -1.456468 -0.555223 -10.699574 -4.315249 -0.088602 2.934741 0.996251 4.274720 4.763222 -0.941935 -2.778949 -2.293644 -0.000000 -0.000001 0.000003 1.813758 -5.024736 23.144142 12.151129 -12.367042 29.094188 -4.652001 2.273465 -31.114459 -0.000001 -0.000003 -0.000001 -10.397437 10.024999 -31.944484 -12.855524 14.781940 -79.510826 -51.956313 21.516411 -38.976625 -0.000000 0.000000 0.000001 -13.133735 -9.176957 48.912484 19.637520 -10.994881 -42.182552 22.149858 -22.358479 14.559334 0.000005 0.000001 -0.000002 -6.637875 -2.543069 12.617974 8.365163 -4.091028 11.596828 0.099994 25.099072 -9.642164 0.000000 0.000001 0.000001 
-107.082367 112.009895 -1.096600 6.249154 176.821604 -9.204204 -1.815577 -0.641129 -10.448141 -4.161202 0.039084 2.945884 0.795453 4.751789 4.757589 -0.879711 -2.761732 -2.467113 -0.000000 0.000000 0.000001 1.663613 -5.793362 22.631087 12.371131 -12.919218 29.116205 -3.063204 0.303361 -31.341460 -0.000001 -0.000003 0.000001 -10.377012 9.767725 -31.742560 -13.077208 15.290210 -79.141340 -53.557754 22.292346 -38.351686 0.000005 0.000003 -0.000000 -12.854353 -9.217824 48.776567 19.146786 -10.569836 -42.016786 21.874355 -22.281366 14.535223 0.000003 0.000000 0.000001 -6.519895 -2.448815 12.628031 7.806597 -3.963057 11.700949 0.334315 25.114042 -9.714538 -0.000000 0.000001 -0.000000 
